<?xml version="1.0" encoding="UTF-8"?>
<svg id="Layer_2" data-name="Layer 2" xmlns="http://www.w3.org/2000/svg" viewBox="0 0 230 91.33">
  <defs>
    <style>
      .cls-1 {
        fill: #ea4335;
      }

      .cls-2 {
        fill: #fbbc04;
      }

      .cls-3 {
        fill: #4285f4;
      }

      .cls-4 {
        fill: #34a853;
      }

      .cls-5 {
        fill: #5f6368;
      }
    </style>
  </defs>
  <g id="Layer_1-2" data-name="Layer 1">
    <path class="cls-5" d="M108.77,44.62v26.77h-8.49V5.28h22.53c5.43-.11,10.68,1.95,14.59,5.72,3.95,3.55,6.17,8.64,6.09,13.95.11,5.34-2.11,10.47-6.09,14.03-3.94,3.76-8.8,5.63-14.59,5.63h-14.03ZM108.77,13.42v23.08h14.24c3.16.09,6.21-1.15,8.4-3.42,4.46-4.34,4.56-11.47.22-15.93-.07-.08-.15-.15-.22-.22-2.17-2.32-5.23-3.6-8.4-3.51h-14.24Z"/>
    <path class="cls-5" d="M163.06,24.68c6.28,0,11.23,1.68,14.87,5.03,3.63,3.36,5.45,7.96,5.44,13.8v27.88h-8.12v-6.28h-.37c-3.52,5.17-8.19,7.75-14.03,7.75-4.98,0-9.15-1.48-12.51-4.43-3.26-2.75-5.11-6.82-5.03-11.08,0-4.68,1.77-8.4,5.31-11.17,3.54-2.76,8.26-4.15,14.17-4.16,5.04,0,9.2.92,12.46,2.77v-1.94c.02-2.91-1.27-5.67-3.51-7.52-2.25-2.03-5.17-3.13-8.2-3.1-4.74,0-8.5,2-11.26,6l-7.48-4.71c4.11-5.91,10.2-8.86,18.27-8.86ZM152.07,57.55c-.01,2.19,1.04,4.26,2.82,5.54,1.88,1.48,4.21,2.26,6.6,2.22,3.58,0,7.02-1.43,9.55-3.97,2.81-2.65,4.22-5.76,4.22-9.32-2.65-2.11-6.34-3.17-11.08-3.17-3.45,0-6.33.83-8.63,2.5-2.33,1.69-3.48,3.74-3.48,6.2h0Z"/>
    <path class="cls-5" d="M230,26.16l-28.36,65.18h-8.77l10.52-22.8-18.65-42.37h9.23l13.48,32.5h.18l13.11-32.5h9.25Z"/>
    <path class="cls-3" d="M74.45,38.85c0-2.59-.22-5.17-.65-7.72h-35.82v14.63h20.52c-.85,4.72-3.59,8.89-7.59,11.54v9.5h12.24c7.17-6.61,11.3-16.38,11.3-27.94Z"/>
    <path class="cls-4" d="M37.98,75.97c10.25,0,18.88-3.37,25.17-9.17l-12.24-9.5c-3.41,2.31-7.8,3.63-12.93,3.63-9.91,0-18.32-6.68-21.32-15.68H4.04v9.79c6.45,12.83,19.58,20.93,33.94,20.93Z"/>
    <path class="cls-2" d="M16.66,45.25c-1.59-4.72-1.59-9.82,0-14.54v-9.79H4.04c-5.39,10.73-5.39,23.38,0,34.11l12.61-9.79Z"/>
    <path class="cls-1" d="M37.98,15.04c5.42-.09,10.65,1.96,14.57,5.7h0l10.84-10.84C56.52,3.44,47.41-.11,37.98,0,23.62,0,10.49,8.1,4.04,20.93l12.61,9.79c3.01-9,11.42-15.68,21.32-15.68Z"/>
  </g>
</svg>