<?xml version="1.0" encoding="UTF-8"?>
<svg id="Layer_2" data-name="Layer 2" xmlns="http://www.w3.org/2000/svg" viewBox="0 0 199.94 155.09">
  <defs>
    <style>
      .cls-1 {
        fill: #eb001b;
      }

      .cls-2 {
        fill: #231f20;
      }

      .cls-3 {
        fill: #ff5f00;
      }

      .cls-4 {
        fill: #f79e1b;
      }
    </style>
  </defs>
  <g id="Layer_1-2" data-name="Layer 1">
    <path class="cls-2" d="M43.03,146.47c0-2.88,1.89-5.25,4.98-5.25s4.94,2.27,4.94,5.25-1.99,5.25-4.94,5.25-4.98-2.37-4.98-5.25M56.32,146.47v-8.21h-3.57v1.99c-1.13-1.48-2.85-2.4-5.18-2.4-4.6,0-8.21,3.61-8.21,8.62s3.61,8.62,8.21,8.62c2.33,0,4.05-.93,5.18-2.4v1.99h3.57v-8.21ZM176.89,146.47c0-2.88,1.89-5.25,4.98-5.25s4.94,2.27,4.94,5.25-1.99,5.25-4.94,5.25-4.98-2.37-4.98-5.25M190.18,146.47v-14.8h-3.57v8.58c-1.13-1.48-2.85-2.4-5.18-2.4-4.6,0-8.21,3.61-8.21,8.62s3.61,8.62,8.21,8.62c2.33,0,4.05-.93,5.18-2.4v1.99h3.57v-8.21ZM100.61,141.05c2.3,0,3.78,1.44,4.15,3.98h-8.52c.38-2.37,1.82-3.98,4.36-3.98M100.68,137.85c-4.81,0-8.17,3.5-8.17,8.62s3.5,8.62,8.41,8.62c2.47,0,4.74-.62,6.73-2.3l-1.75-2.64c-1.38,1.1-3.13,1.72-4.77,1.72-2.3,0-4.39-1.06-4.91-4.02h12.19c.04-.44.07-.89.07-1.37-.04-5.12-3.19-8.62-7.79-8.62M143.76,146.47c0-2.88,1.89-5.25,4.98-5.25s4.94,2.27,4.94,5.25-1.99,5.25-4.94,5.25-4.98-2.37-4.98-5.25M157.05,146.47v-8.21h-3.57v1.99c-1.14-1.48-2.85-2.4-5.18-2.4-4.6,0-8.21,3.61-8.21,8.62s3.61,8.62,8.21,8.62c2.33,0,4.05-.93,5.18-2.4v1.99h3.57v-8.21ZM123.61,146.47c0,4.98,3.47,8.62,8.76,8.62,2.47,0,4.12-.55,5.9-1.96l-1.71-2.88c-1.34.96-2.75,1.48-4.3,1.48-2.85-.04-4.94-2.09-4.94-5.25s2.09-5.22,4.94-5.25c1.55,0,2.96.51,4.3,1.48l1.71-2.88c-1.78-1.41-3.43-1.96-5.9-1.96-5.29,0-8.76,3.64-8.76,8.62M169.61,137.85c-2.06,0-3.4.96-4.33,2.4v-1.99h-3.54v16.41h3.57v-9.2c0-2.72,1.17-4.22,3.5-4.22.72,0,1.48.1,2.23.41l1.1-3.36c-.79-.31-1.82-.45-2.54-.45M73.96,139.57c-1.72-1.13-4.08-1.72-6.69-1.72-4.16,0-6.83,1.99-6.83,5.25,0,2.68,1.99,4.33,5.66,4.84l1.69.24c1.96.28,2.88.79,2.88,1.72,0,1.27-1.3,1.99-3.74,1.99s-4.26-.79-5.46-1.72l-1.68,2.78c1.96,1.44,4.43,2.13,7.1,2.13,4.74,0,7.49-2.23,7.49-5.36,0-2.88-2.16-4.39-5.73-4.91l-1.68-.24c-1.54-.2-2.78-.51-2.78-1.61,0-1.2,1.17-1.92,3.12-1.92,2.09,0,4.12.79,5.12,1.41l1.54-2.88ZM120,137.85c-2.06,0-3.4.96-4.32,2.4v-1.99h-3.54v16.41h3.57v-9.2c0-2.72,1.17-4.22,3.5-4.22.72,0,1.48.1,2.23.41l1.1-3.36c-.79-.31-1.82-.45-2.54-.45M89.55,138.26h-5.84v-4.98h-3.61v4.98h-3.33v3.26h3.33v7.49c0,3.81,1.48,6.08,5.7,6.08,1.55,0,3.33-.48,4.46-1.27l-1.03-3.06c-1.06.62-2.23.93-3.16.93-1.78,0-2.37-1.1-2.37-2.75v-7.42h5.84v-3.26ZM36.2,154.67v-10.3c0-3.88-2.47-6.49-6.46-6.52-2.09-.04-4.26.62-5.77,2.92-1.13-1.82-2.92-2.92-5.42-2.92-1.75,0-3.47.51-4.81,2.44v-2.02h-3.57v16.41h3.6v-9.1c0-2.85,1.58-4.36,4.02-4.36s3.57,1.54,3.57,4.33v9.13h3.61v-9.1c0-2.85,1.65-4.36,4.02-4.36s3.6,1.54,3.6,4.33v9.13h3.61Z"/>
    <path class="cls-3" d="M127.01,110.41h-54.08V13.22h54.08v97.19Z"/>
    <path class="cls-1" d="M76.39,61.81c0-19.71,9.23-37.28,23.61-48.59C89.49,4.94,76.22,0,61.8,0,27.67,0,0,27.67,0,61.81s27.67,61.81,61.8,61.81c14.42,0,27.68-4.94,38.2-13.22-14.37-11.32-23.61-28.88-23.61-48.59"/>
    <path class="cls-4" d="M199.94,61.81c0,34.14-27.67,61.81-61.8,61.81-14.42,0-27.68-4.94-38.2-13.22,14.38-11.32,23.61-28.88,23.61-48.59s-9.23-37.28-23.61-48.59C110.45,4.94,123.72,0,138.14,0c34.13,0,61.8,27.67,61.8,61.81"/>
  </g>
</svg>