<?xml version="1.0" encoding="UTF-8"?>
<svg id="Layer_2" data-name="Layer 2" xmlns="http://www.w3.org/2000/svg" viewBox="0 0 260 65.95">
  <defs>
    <style>
      .cls-1 {
        fill: #012069;
      }

      .cls-2 {
        fill: #009cde;
      }

      .cls-3 {
        fill: #002f86;
      }
    </style>
  </defs>
  <g id="Layer_1-2" data-name="Layer 1">
    <path id="path14519" class="cls-3" d="M178.3,30.56h-6.81c-.65,0-1.26.32-1.63.86l-9.39,13.83-3.98-13.29c-.25-.83-1.02-1.4-1.88-1.4h-6.69c-.81,0-1.38.8-1.12,1.56l7.5,22.01-7.05,9.95c-.55.78,0,1.86.96,1.86h6.8c.64,0,1.25-.32,1.62-.84l22.65-32.69c.54-.78-.02-1.85-.97-1.85M132.78,43.75c-.65,3.87-3.73,6.47-7.65,6.47-1.96,0-3.54-.63-4.55-1.83-1-1.19-1.38-2.88-1.06-4.76.61-3.84,3.73-6.52,7.59-6.52,1.92,0,3.49.64,4.52,1.85,1.04,1.22,1.45,2.92,1.15,4.79M142.22,30.56h-6.77c-.58,0-1.07.42-1.17,1l-.3,1.89-.47-.69c-1.47-2.13-4.74-2.84-8-2.84-7.48,0-13.88,5.67-15.12,13.63-.65,3.97.27,7.76,2.52,10.41,2.07,2.43,5.02,3.44,8.53,3.44,6.03,0,9.38-3.87,9.38-3.87l-.3,1.88c-.11.72.44,1.36,1.17,1.36h6.1c.97,0,1.79-.7,1.94-1.66l3.66-23.19c.11-.72-.44-1.36-1.17-1.36M101.57,30.73c-.77,5.08-4.65,5.08-8.4,5.08h-2.13l1.5-9.48c.09-.57.58-.99,1.16-.99h.98c2.55,0,4.97,0,6.21,1.45.74.87.97,2.16.69,3.94M99.93,17.48h-14.15c-.97,0-1.79.7-1.94,1.66l-5.72,36.28c-.11.72.44,1.36,1.16,1.36h6.76c.97,0,1.79-.7,1.94-1.66l1.55-9.79c.15-.96.97-1.66,1.94-1.66h4.48c9.32,0,14.7-4.51,16.1-13.45.63-3.91.03-6.98-1.8-9.13-2.01-2.36-5.58-3.62-10.31-3.62"/>
    <path id="path14523" class="cls-2" d="M251.12,18.47l-5.81,36.94c-.11.72.44,1.36,1.16,1.36h5.84c.97,0,1.79-.7,1.94-1.66l5.73-36.28c.11-.72-.44-1.36-1.17-1.36h-6.53c-.58,0-1.08.42-1.17,1M233.69,43.75c-.65,3.87-3.73,6.47-7.65,6.47-1.96,0-3.54-.63-4.55-1.83-1-1.19-1.38-2.88-1.06-4.76.61-3.84,3.73-6.52,7.59-6.52,1.92,0,3.49.64,4.52,1.85,1.04,1.22,1.45,2.92,1.15,4.79M243.13,30.56h-6.77c-.58,0-1.07.42-1.17,1l-.3,1.89-.47-.69c-1.47-2.13-4.74-2.84-8-2.84-7.48,0-13.88,5.67-15.12,13.63-.65,3.97.27,7.76,2.52,10.41,2.07,2.43,5.02,3.44,8.53,3.44,6.03,0,9.38-3.87,9.38-3.87l-.3,1.88c-.11.72.44,1.36,1.17,1.36h6.1c.97,0,1.79-.7,1.94-1.66l3.66-23.19c.11-.72-.44-1.36-1.17-1.36M202.48,30.73c-.77,5.08-4.65,5.08-8.4,5.08h-2.13l1.5-9.48c.09-.57.58-.99,1.16-.99h.98c2.55,0,4.97,0,6.21,1.45.74.87.97,2.16.69,3.94M200.85,17.48h-14.15c-.97,0-1.79.7-1.94,1.66l-5.72,36.28c-.11.72.44,1.36,1.16,1.36h7.26c.68,0,1.25-.49,1.36-1.16l1.62-10.29c.15-.96.97-1.66,1.94-1.66h4.48c9.32,0,14.7-4.51,16.1-13.45.63-3.91.03-6.98-1.8-9.13-2.01-2.36-5.58-3.62-10.31-3.62"/>
    <path id="path14531" class="cls-3" d="M21.01,16.82c.13-.86.69-1.56,1.43-1.92.34-.16.71-.25,1.11-.25h16.07c1.9,0,3.68.12,5.3.38.47.07.92.16,1.35.26.44.1.86.21,1.28.33.21.06.41.12.61.19.8.27,1.54.58,2.22.94.8-5.13,0-8.62-2.78-11.78-3.06-3.48-8.57-4.97-15.63-4.97H11.45c-1.44,0-2.67,1.05-2.9,2.48L.02,56.59c-.17,1.07.66,2.03,1.74,2.03h12.65l3.18-20.16,3.41-21.65h0Z"/>
    <path id="path14535" class="cls-2" d="M50.36,16.75h0c-.06.39-.13.79-.21,1.2-2.7,13.88-11.95,18.68-23.76,18.68h-6.01c-1.44,0-2.66,1.05-2.89,2.48l-3.08,19.52-.87,5.54c-.15.93.57,1.78,1.52,1.78h10.67c1.26,0,2.34-.92,2.53-2.17l.1-.54,2.01-12.74.13-.7c.2-1.25,1.27-2.17,2.53-2.17h1.6c10.33,0,18.42-4.2,20.79-16.34.99-5.07.48-9.31-2.13-12.28-.79-.9-1.77-1.65-2.92-2.25"/>
    <path id="path14539" class="cls-1" d="M47.54,15.63c-.41-.12-.84-.23-1.28-.33-.44-.1-.89-.18-1.35-.26-1.62-.26-3.4-.39-5.3-.39h-16.07c-.4,0-.77.09-1.11.25-.74.36-1.29,1.06-1.43,1.92l-3.41,21.65-.1.63c.22-1.42,1.44-2.48,2.89-2.48h6.01c11.81,0,21.06-4.8,23.76-18.68.08-.41.15-.81.21-1.2-.68-.36-1.42-.67-2.22-.94-.2-.07-.4-.13-.61-.19"/>
  </g>
</svg>