<?xml version="1.0" encoding="UTF-8"?>
<svg id="Layer_2" data-name="Layer 2" xmlns="http://www.w3.org/2000/svg" xmlns:xlink="http://www.w3.org/1999/xlink" viewBox="0 0 278.17 223.45">
  <defs>
    <style>
      .cls-1 {
        fill: none;
      }

      .cls-2 {
        fill: url(#linear-gradient);
      }

      .cls-3 {
        clip-path: url(#clippath);
      }
    </style>
    <clipPath id="clippath">
      <path class="cls-1" d="M143.04,98.33c-.13,10.35,9.22,16.12,16.26,19.55,7.24,3.52,9.67,5.78,9.64,8.93-.06,4.82-5.77,6.95-11.13,7.03-9.34.15-14.77-2.52-19.08-4.54l-3.36,15.74c4.33,2,12.35,3.74,20.66,3.81,19.52,0,32.29-9.63,32.36-24.57.08-18.96-26.22-20.01-26.04-28.48.06-2.57,2.51-5.31,7.89-6.01,2.66-.35,10-.62,18.32,3.21l3.27-15.23c-4.48-1.63-10.23-3.19-17.39-3.19-18.37,0-31.29,9.77-31.4,23.74M223.21,75.9c-3.56,0-6.57,2.08-7.91,5.27l-27.88,66.57h19.5l3.88-10.73h23.83l2.25,10.73h17.19l-15-71.84h-15.87M225.94,95.31l5.63,26.98h-15.42l9.79-26.98M119.39,75.9l-15.37,71.84h18.59l15.37-71.84h-18.58M91.89,75.9l-19.35,48.9-7.83-41.58c-.92-4.64-4.54-7.32-8.57-7.32h-31.62l-.44,2.09c6.49,1.41,13.87,3.68,18.34,6.11,2.73,1.48,3.52,2.78,4.41,6.31l14.82,57.33h19.64l30.11-71.84h-19.52"/>
    </clipPath>
    <linearGradient id="linear-gradient" x1="273.52" y1="2517.63" x2="273.98" y2="2517.63" gradientTransform="translate(274394.25 1099091.34) rotate(-20.22) scale(447.27 -447.27)" gradientUnits="userSpaceOnUse">
      <stop offset="0" stop-color="#222357"/>
      <stop offset="1" stop-color="#254aa5"/>
    </linearGradient>
  </defs>
  <g id="Layer_1-2" data-name="Layer 1">
    <g class="cls-3">
      <path id="path10283" class="cls-2" d="M0,83.46L226.62,0l51.55,139.99L51.56,223.45"/>
    </g>
  </g>
</svg>